<mxfile host="Electron" agent="Mozilla/5.0 (Windows NT 10.0; Win64; x64) AppleWebKit/537.36 (KHTML, like Gecko) draw.io/26.0.15 Chrome/132.0.6834.196 Electron/34.2.0 Safari/537.36" version="26.0.15">
  <diagram name="Page-1" id="jsDElPwnb_3iyejhpyAd">
    <mxGraphModel dx="1192" dy="1906" grid="1" gridSize="10" guides="1" tooltips="1" connect="1" arrows="1" fold="1" page="1" pageScale="1" pageWidth="850" pageHeight="1100" math="0" shadow="0">
      <root>
        <mxCell id="0" />
        <mxCell id="1" parent="0" />
        <mxCell id="qolimeGPOZzHJa0loA12-1" value="Start" style="ellipse;whiteSpace=wrap;html=1;" vertex="1" parent="1">
          <mxGeometry x="272.5" y="-20" width="65" height="50" as="geometry" />
        </mxCell>
        <mxCell id="qolimeGPOZzHJa0loA12-6" value="get int, store in hitTarget" style="shape=parallelogram;perimeter=parallelogramPerimeter;whiteSpace=wrap;html=1;fixedSize=1;" vertex="1" parent="1">
          <mxGeometry x="260" y="620" width="120" height="60" as="geometry" />
        </mxCell>
        <mxCell id="qolimeGPOZzHJa0loA12-7" value="get int, store in diceCount" style="shape=parallelogram;perimeter=parallelogramPerimeter;whiteSpace=wrap;html=1;fixedSize=1;" vertex="1" parent="1">
          <mxGeometry x="250" y="400" width="120" height="60" as="geometry" />
        </mxCell>
        <mxCell id="qolimeGPOZzHJa0loA12-8" value="Seed random&lt;div&gt;&lt;br&gt;&lt;/div&gt;" style="whiteSpace=wrap;html=1;aspect=fixed;" vertex="1" parent="1">
          <mxGeometry x="265" y="60" width="80" height="80" as="geometry" />
        </mxCell>
        <mxCell id="qolimeGPOZzHJa0loA12-10" value="Welcome MSG" style="shape=dataStorage;whiteSpace=wrap;html=1;fixedSize=1;" vertex="1" parent="1">
          <mxGeometry x="240" y="180" width="130" height="80" as="geometry" />
        </mxCell>
        <mxCell id="qolimeGPOZzHJa0loA12-13" value="Prompt # of dice" style="shape=dataStorage;whiteSpace=wrap;html=1;fixedSize=1;" vertex="1" parent="1">
          <mxGeometry x="240" y="280" width="130" height="80" as="geometry" />
        </mxCell>
        <mxCell id="qolimeGPOZzHJa0loA12-14" value="Display result" style="shape=dataStorage;whiteSpace=wrap;html=1;fixedSize=1;" vertex="1" parent="1">
          <mxGeometry x="870" y="90" width="130" height="80" as="geometry" />
        </mxCell>
        <mxCell id="qolimeGPOZzHJa0loA12-15" value="Prompt for hit target" style="shape=dataStorage;whiteSpace=wrap;html=1;fixedSize=1;" vertex="1" parent="1">
          <mxGeometry x="250" y="500" width="130" height="80" as="geometry" />
        </mxCell>
        <mxCell id="qolimeGPOZzHJa0loA12-16" value="Seed random&lt;div&gt;&lt;br&gt;&lt;/div&gt;" style="whiteSpace=wrap;html=1;aspect=fixed;" vertex="1" parent="1">
          <mxGeometry x="280" y="700" width="80" height="80" as="geometry" />
        </mxCell>
        <mxCell id="qolimeGPOZzHJa0loA12-18" value="if loopCount &amp;lt;&lt;div&gt;diceCount&lt;/div&gt;" style="rhombus;whiteSpace=wrap;html=1;" vertex="1" parent="1">
          <mxGeometry x="630" width="130" height="100" as="geometry" />
        </mxCell>
        <mxCell id="qolimeGPOZzHJa0loA12-19" value="if diceRoll &amp;gt;=" style="rhombus;whiteSpace=wrap;html=1;" vertex="1" parent="1">
          <mxGeometry x="640" y="265" width="120" height="110" as="geometry" />
        </mxCell>
        <mxCell id="qolimeGPOZzHJa0loA12-20" value="random() store diceRoll&lt;div&gt;&lt;br&gt;&lt;/div&gt;" style="rounded=1;whiteSpace=wrap;html=1;" vertex="1" parent="1">
          <mxGeometry x="640" y="170" width="120" height="60" as="geometry" />
        </mxCell>
        <mxCell id="qolimeGPOZzHJa0loA12-21" value="hitcount = 1" style="rounded=1;whiteSpace=wrap;html=1;" vertex="1" parent="1">
          <mxGeometry x="650" y="420" width="120" height="60" as="geometry" />
        </mxCell>
        <mxCell id="qolimeGPOZzHJa0loA12-22" value="loopCount += 1" style="rounded=1;whiteSpace=wrap;html=1;" vertex="1" parent="1">
          <mxGeometry x="620" y="540" width="120" height="60" as="geometry" />
        </mxCell>
        <mxCell id="qolimeGPOZzHJa0loA12-23" value="End" style="shape=dataStorage;whiteSpace=wrap;html=1;fixedSize=1;" vertex="1" parent="1">
          <mxGeometry x="880" y="230" width="100" height="80" as="geometry" />
        </mxCell>
        <mxCell id="qolimeGPOZzHJa0loA12-24" value="" style="endArrow=classic;html=1;rounded=0;exitX=0.5;exitY=1;exitDx=0;exitDy=0;" edge="1" parent="1" source="qolimeGPOZzHJa0loA12-10" target="qolimeGPOZzHJa0loA12-13">
          <mxGeometry width="50" height="50" relative="1" as="geometry">
            <mxPoint x="330" y="270" as="sourcePoint" />
            <mxPoint x="330" y="250" as="targetPoint" />
          </mxGeometry>
        </mxCell>
        <mxCell id="qolimeGPOZzHJa0loA12-25" value="" style="endArrow=classic;html=1;rounded=0;" edge="1" parent="1">
          <mxGeometry width="50" height="50" relative="1" as="geometry">
            <mxPoint x="309.5" y="360" as="sourcePoint" />
            <mxPoint x="309.5" y="400" as="targetPoint" />
          </mxGeometry>
        </mxCell>
        <mxCell id="qolimeGPOZzHJa0loA12-26" value="" style="endArrow=classic;html=1;rounded=0;" edge="1" parent="1">
          <mxGeometry width="50" height="50" relative="1" as="geometry">
            <mxPoint x="314.5" y="460" as="sourcePoint" />
            <mxPoint x="314.5" y="500" as="targetPoint" />
          </mxGeometry>
        </mxCell>
        <mxCell id="qolimeGPOZzHJa0loA12-27" value="" style="endArrow=classic;html=1;rounded=0;entryX=0.5;entryY=0;entryDx=0;entryDy=0;exitX=0.5;exitY=1;exitDx=0;exitDy=0;" edge="1" parent="1" source="qolimeGPOZzHJa0loA12-8" target="qolimeGPOZzHJa0loA12-10">
          <mxGeometry width="50" height="50" relative="1" as="geometry">
            <mxPoint x="300" y="140" as="sourcePoint" />
            <mxPoint x="312.5" y="150" as="targetPoint" />
          </mxGeometry>
        </mxCell>
        <mxCell id="qolimeGPOZzHJa0loA12-28" value="" style="endArrow=classic;html=1;rounded=0;entryX=0.5;entryY=0;entryDx=0;entryDy=0;exitX=0.5;exitY=1;exitDx=0;exitDy=0;" edge="1" parent="1" source="qolimeGPOZzHJa0loA12-1" target="qolimeGPOZzHJa0loA12-8">
          <mxGeometry width="50" height="50" relative="1" as="geometry">
            <mxPoint x="360" y="50" as="sourcePoint" />
            <mxPoint x="312.5" y="30" as="targetPoint" />
          </mxGeometry>
        </mxCell>
        <mxCell id="qolimeGPOZzHJa0loA12-29" value="" style="endArrow=classic;html=1;rounded=0;exitX=0.5;exitY=1;exitDx=0;exitDy=0;entryX=0.5;entryY=0;entryDx=0;entryDy=0;" edge="1" parent="1" source="qolimeGPOZzHJa0loA12-6" target="qolimeGPOZzHJa0loA12-16">
          <mxGeometry width="50" height="50" relative="1" as="geometry">
            <mxPoint x="305" y="700" as="sourcePoint" />
            <mxPoint x="440" y="690" as="targetPoint" />
          </mxGeometry>
        </mxCell>
        <mxCell id="qolimeGPOZzHJa0loA12-30" value="" style="endArrow=classic;html=1;rounded=0;" edge="1" parent="1">
          <mxGeometry width="50" height="50" relative="1" as="geometry">
            <mxPoint x="319.5" y="580" as="sourcePoint" />
            <mxPoint x="319.5" y="620" as="targetPoint" />
          </mxGeometry>
        </mxCell>
        <mxCell id="qolimeGPOZzHJa0loA12-31" value="" style="endArrow=classic;html=1;rounded=0;entryX=0.038;entryY=0.57;entryDx=0;entryDy=0;entryPerimeter=0;" edge="1" parent="1" target="qolimeGPOZzHJa0loA12-18">
          <mxGeometry width="50" height="50" relative="1" as="geometry">
            <mxPoint x="360" y="760" as="sourcePoint" />
            <mxPoint x="410" y="710" as="targetPoint" />
          </mxGeometry>
        </mxCell>
        <mxCell id="qolimeGPOZzHJa0loA12-32" value="" style="endArrow=classic;html=1;rounded=0;exitX=0;exitY=0.75;exitDx=0;exitDy=0;entryX=0.131;entryY=0.59;entryDx=0;entryDy=0;entryPerimeter=0;" edge="1" parent="1" source="qolimeGPOZzHJa0loA12-22" target="qolimeGPOZzHJa0loA12-18">
          <mxGeometry width="50" height="50" relative="1" as="geometry">
            <mxPoint x="590" y="565" as="sourcePoint" />
            <mxPoint x="570" y="500" as="targetPoint" />
          </mxGeometry>
        </mxCell>
        <mxCell id="qolimeGPOZzHJa0loA12-33" value="" style="endArrow=classic;html=1;rounded=0;entryX=1;entryY=0.75;entryDx=0;entryDy=0;" edge="1" parent="1" target="qolimeGPOZzHJa0loA12-22">
          <mxGeometry width="50" height="50" relative="1" as="geometry">
            <mxPoint x="730" y="350" as="sourcePoint" />
            <mxPoint x="780" y="300" as="targetPoint" />
            <Array as="points">
              <mxPoint x="830" y="470" />
            </Array>
          </mxGeometry>
        </mxCell>
        <mxCell id="qolimeGPOZzHJa0loA12-34" value="False" style="text;html=1;align=center;verticalAlign=middle;resizable=0;points=[];autosize=1;strokeColor=none;fillColor=none;" vertex="1" parent="1">
          <mxGeometry x="820" y="450" width="50" height="30" as="geometry" />
        </mxCell>
        <mxCell id="qolimeGPOZzHJa0loA12-35" value="" style="endArrow=classic;html=1;rounded=0;entryX=0.5;entryY=0;entryDx=0;entryDy=0;" edge="1" parent="1" source="qolimeGPOZzHJa0loA12-18" target="qolimeGPOZzHJa0loA12-20">
          <mxGeometry width="50" height="50" relative="1" as="geometry">
            <mxPoint x="710" y="110" as="sourcePoint" />
            <mxPoint x="760" y="60" as="targetPoint" />
          </mxGeometry>
        </mxCell>
        <mxCell id="qolimeGPOZzHJa0loA12-36" value="True" style="text;html=1;align=center;verticalAlign=middle;resizable=0;points=[];autosize=1;strokeColor=none;fillColor=none;" vertex="1" parent="1">
          <mxGeometry x="700" y="130" width="50" height="30" as="geometry" />
        </mxCell>
        <mxCell id="qolimeGPOZzHJa0loA12-38" value="" style="endArrow=classic;html=1;rounded=0;exitX=0.5;exitY=1;exitDx=0;exitDy=0;exitPerimeter=0;entryX=0.5;entryY=0;entryDx=0;entryDy=0;" edge="1" parent="1" source="qolimeGPOZzHJa0loA12-20" target="qolimeGPOZzHJa0loA12-19">
          <mxGeometry width="50" height="50" relative="1" as="geometry">
            <mxPoint x="740" y="270" as="sourcePoint" />
            <mxPoint x="700" y="260" as="targetPoint" />
          </mxGeometry>
        </mxCell>
        <mxCell id="qolimeGPOZzHJa0loA12-39" value="" style="endArrow=classic;html=1;rounded=0;exitX=0.5;exitY=1;exitDx=0;exitDy=0;entryX=0.75;entryY=0;entryDx=0;entryDy=0;" edge="1" parent="1" source="qolimeGPOZzHJa0loA12-21" target="qolimeGPOZzHJa0loA12-22">
          <mxGeometry width="50" height="50" relative="1" as="geometry">
            <mxPoint x="675" y="510" as="sourcePoint" />
            <mxPoint x="710" y="530" as="targetPoint" />
          </mxGeometry>
        </mxCell>
        <mxCell id="qolimeGPOZzHJa0loA12-40" value="" style="endArrow=classic;html=1;rounded=0;" edge="1" parent="1" target="qolimeGPOZzHJa0loA12-14">
          <mxGeometry width="50" height="50" relative="1" as="geometry">
            <mxPoint x="730" y="70" as="sourcePoint" />
            <mxPoint x="780" y="20" as="targetPoint" />
          </mxGeometry>
        </mxCell>
        <mxCell id="qolimeGPOZzHJa0loA12-41" value="" style="endArrow=classic;html=1;rounded=0;entryX=0.5;entryY=0;entryDx=0;entryDy=0;" edge="1" parent="1" target="qolimeGPOZzHJa0loA12-23">
          <mxGeometry width="50" height="50" relative="1" as="geometry">
            <mxPoint x="930" y="170" as="sourcePoint" />
            <mxPoint x="960" y="170" as="targetPoint" />
          </mxGeometry>
        </mxCell>
      </root>
    </mxGraphModel>
  </diagram>
</mxfile>
